<svg width="70" height="19" viewBox="0 0 70 19" fill="none" xmlns="http://www.w3.org/2000/svg">
<g clip-path="url(#clip0_1_71)">
<path d="M69.0782 17.4717L59.0905 0.368238C59.0283 0.280231 58.9097 0.0208429 58.6103 0.0208429L44.3992 0H44.1942C44.0743 0.000426709 43.9572 0.0366312 43.8578 0.104023C43.7584 0.171416 43.6811 0.266967 43.6357 0.378571C43.5904 0.490176 43.579 0.612813 43.6029 0.730949C43.6269 0.849086 43.6852 0.957403 43.7705 1.04219L47.5472 4.76395H47.2709H47.2317C47.145 4.76426 47.0603 4.79049 46.9885 4.8393C46.9166 4.8881 46.8608 4.95729 46.8281 5.03807C46.7954 5.11885 46.7873 5.20758 46.8048 5.293C46.8224 5.37841 46.8647 5.45666 46.9266 5.5178L50.0954 8.63393H50.0539H49.9883H49.9595C49.9074 8.63351 49.8564 8.64854 49.8128 8.67713C49.7692 8.70571 49.7349 8.74659 49.7143 8.79466C49.6936 8.84272 49.6876 8.89584 49.6968 8.94737C49.706 8.9989 49.7301 9.04656 49.7661 9.08438L52.8059 12.2851C52.8693 12.3533 52.9536 12.3981 53.0454 12.4124C53.0554 12.4131 53.0654 12.4131 53.0753 12.4124H53.111H55.62L55.1894 13.9062C55.1102 14.2181 55.157 14.5487 55.3194 14.826C55.4819 15.1033 55.7468 15.3047 56.0564 15.3861L68.233 18.5926C68.3777 18.6298 68.5301 18.6233 68.6711 18.5738C68.8121 18.5243 68.9354 18.434 69.0257 18.3144C69.1159 18.1947 69.169 18.0509 69.1784 17.901C69.1877 17.7511 69.1528 17.6017 69.0782 17.4717ZM44.0687 0.744583C44.0415 0.720266 44.0226 0.687909 44.0147 0.652136C44.0068 0.616364 44.0104 0.57901 44.025 0.545413C44.0401 0.509189 44.0661 0.478591 44.0993 0.45785C44.1325 0.437109 44.1713 0.427247 44.2103 0.429615H44.4038H58.5148C58.5491 0.429018 58.583 0.436676 58.6138 0.451956C58.6446 0.467235 58.6713 0.489693 58.6917 0.517453C58.7121 0.545213 58.7256 0.577468 58.731 0.611539C58.7365 0.64561 58.7338 0.680505 58.7232 0.713315L57.7387 4.79984L48.1483 4.77784L44.0687 0.744583ZM47.2306 5.22135C47.2306 5.22135 47.2225 5.21324 47.2306 5.2005C47.2386 5.18776 47.2306 5.19008 47.2409 5.19008H47.3906H47.9974L57.6316 5.22366L56.6701 8.64666L50.7252 8.65361L47.2306 5.22135ZM53.1122 11.9921L50.3349 9.06817H56.5458L55.7398 11.9932L53.1122 11.9921Z" fill="white" fill-opacity="0.75"/>
<path d="M0.995361 13.3157V13.296C0.995361 11.2185 2.58552 9.59042 4.73182 9.59042C6.18034 9.59042 7.11186 10.2007 7.74055 11.0773L6.26208 12.2237C5.85677 11.7153 5.39044 11.3899 4.71224 11.3899C3.71969 11.3899 3.02077 12.2341 3.02077 13.2728V13.2937C3.02077 14.3625 3.71969 15.1985 4.71224 15.1985C5.45147 15.1985 5.88671 14.8511 6.3116 14.3324L7.79121 15.3919C7.12222 16.3183 6.22063 17.0015 4.65121 17.0015C2.62581 17.0038 0.995361 15.4452 0.995361 13.3157Z" fill="white" fill-opacity="0.75"/>
<path d="M8.52005 11.3505H10.443V12.461C10.7573 11.7072 11.2639 11.2185 12.1701 11.2591V13.296H12.0089C11.006 13.296 10.4384 13.8749 10.4384 15.1487V16.8602H8.51544L8.52005 11.3505Z" fill="white" fill-opacity="0.75"/>
<path d="M12.5294 14.1309V14.1112C12.5294 12.5016 13.674 11.229 15.2929 11.229C17.187 11.229 18.0564 12.6243 18.0564 14.2397C18.0564 14.3555 18.0564 14.5038 18.046 14.6369H14.3798C14.5329 15.2379 14.9682 15.5425 15.5658 15.5425C16.0264 15.5425 16.3856 15.3699 16.7806 14.9832L17.8445 15.869C17.3171 16.5418 16.5572 16.9888 15.4633 16.9888C13.7442 16.9923 12.5294 15.8424 12.5294 14.1309ZM16.2555 13.6526C16.1853 13.0412 15.8306 12.6545 15.3033 12.6545C14.7978 12.6545 14.4535 13.0516 14.3522 13.6526H16.2555Z" fill="white" fill-opacity="0.75"/>
<path d="M18.6747 14.1309V14.1112C18.6747 12.3186 19.7881 11.229 21.0847 11.229C21.916 11.229 22.4019 11.6053 22.7658 12.0222V9.42599H24.691V16.8614H22.7658V16.1272C22.3916 16.5904 21.916 16.983 21.095 16.983C19.8008 16.983 18.6747 15.8933 18.6747 14.1309ZM22.7969 14.1112V14.0903C22.7969 13.3666 22.3006 12.8478 21.6834 12.8478C21.0662 12.8478 20.5584 13.3573 20.5584 14.0903V14.1112C20.5584 14.8442 21.0651 15.363 21.6834 15.363C22.3017 15.363 22.798 14.8442 22.798 14.1112H22.7969Z" fill="white" fill-opacity="0.75"/>
<path d="M25.5661 9.73169H27.3992L30.3146 13.4975V9.73169H32.2617V16.8614H30.5346L27.5074 12.9497V16.8614H25.5626L25.5661 9.73169Z" fill="white" fill-opacity="0.75"/>
<path d="M33.1104 9.73169H38.8124V11.4131H35.054V12.4935H38.4577V14.051H35.054V15.1823H38.863V16.8626H33.1058L33.1104 9.73169Z" fill="white" fill-opacity="0.75"/>
<path d="M41.7785 13.2358L39.4491 9.73169H41.7036L42.9587 11.7373L44.2253 9.73169H46.4349L44.1044 13.2137L46.5351 16.8614H44.2771L42.9196 14.711L41.5528 16.8614H39.3443L41.7785 13.2358Z" fill="white" fill-opacity="0.75"/>
</g>
<defs>
<clipPath id="clip0_1_71">
<rect width="68.1899" height="18.6227" fill="white" transform="translate(0.995361)"/>
</clipPath>
</defs>
</svg>
