<svg width="65" height="28" viewBox="0 0 65 28" fill="none" xmlns="http://www.w3.org/2000/svg">
<g clip-path="url(#clip0_1_80)">
<path d="M64.7641 0.119283C64.6728 0.0487691 64.5624 0.00737947 64.4473 0.00050294C64.3322 -0.00637359 64.2176 0.0215806 64.1186 0.0807262L52.789 6.68816L52.5012 6.85563L46.6563 3.49047L46.5033 3.40613L46.4865 3.3989L46.4515 3.38565L46.4166 3.37119L46.3419 3.36155H46.2793L46.1131 3.38324H46.1059L45.8879 3.44348L37.1272 5.8303C37.0162 5.86044 36.9167 5.92281 36.8411 6.00954C36.7655 6.09627 36.7173 6.20347 36.7026 6.31758C36.6879 6.43169 36.7074 6.54761 36.7585 6.65067C36.8097 6.75373 36.8902 6.83931 36.9899 6.8966L48.3713 13.4076L48.6604 13.5715L48.67 20.4392L48.6808 20.5476C48.6815 20.5504 48.6815 20.5533 48.6808 20.5561L48.7447 20.7525L48.8651 20.8729L55.4555 27.4105C55.5091 27.4646 55.5729 27.5076 55.6431 27.537C55.7134 27.5664 55.7888 27.5815 55.865 27.5816C55.9427 27.5811 56.0196 27.5655 56.0914 27.5358C56.1978 27.4911 56.2883 27.4156 56.3514 27.3189C56.4145 27.2223 56.4473 27.109 56.4455 26.9936L56.3925 13.8763V13.5414L62.2807 10.1304L62.3542 10.0859L62.3735 10.0726L62.4168 10.0401L62.4746 9.98345L62.4831 9.97501L62.571 9.82199L62.6348 9.60271L64.9725 0.730146C65.0031 0.619167 64.9995 0.50155 64.9624 0.392604C64.9252 0.283658 64.8561 0.188424 64.7641 0.119283ZM49.0602 13.6583L55.7024 13.6305L49.0687 20.0874L49.0602 13.8028V13.6583ZM52.2302 7.16047L48.9241 12.9438L46.3949 3.80253L52.2302 7.16047ZM56.3949 13.0835L56.266 13.151L52.9179 7.40625L61.9869 9.84247L56.3949 13.0835Z" fill="white" fill-opacity="0.75"/>
<path d="M26.8202 16.9222H24.6896V15.1969H30.9187V16.9222H28.7845V22.3019H26.8166L26.8202 16.9222Z" fill="white" fill-opacity="0.75"/>
<path d="M31.781 15.1969H37.4922V16.8716H33.7285V17.9476H37.1381V19.5006H33.7285V20.6272H37.544V22.3019H31.781V15.1969Z" fill="white" fill-opacity="0.75"/>
<path d="M38.0498 18.7692V18.75C38.0498 16.6788 39.6432 15.0559 41.793 15.0559C43.2383 15.0559 44.1777 15.6643 44.804 16.5366L43.3238 17.6837C42.9167 17.1764 42.4506 16.8511 41.7714 16.8511C40.7765 16.8511 40.0768 17.6945 40.0768 18.7295V18.75C40.0768 19.8151 40.7765 20.6476 41.7714 20.6476C42.5121 20.6476 42.9481 20.3018 43.3744 19.7849L44.8546 20.8404C44.1862 21.7633 43.2889 22.4441 41.7099 22.4441C41.2261 22.4514 40.7458 22.3613 40.2975 22.1791C39.8493 21.9968 39.4423 21.7262 39.1007 21.3833C38.7592 21.0404 38.4902 20.6323 38.3096 20.1832C38.1291 19.7341 38.0407 19.2532 38.0498 18.7692Z" fill="white" fill-opacity="0.75"/>
<path d="M0.166044 18.7692V18.75C0.166044 16.6788 1.75944 15.0559 3.91046 15.0559C5.35572 15.0559 6.29393 15.6643 6.92141 16.5366L5.44003 17.6837C5.03415 17.1764 4.56806 16.8511 3.88879 16.8511C2.89397 16.8511 2.19422 17.6945 2.19422 18.7295V18.75C2.19422 19.8151 2.89397 20.6476 3.88879 20.6476C4.62828 20.6476 5.06546 20.3018 5.49181 19.7849L6.972 20.8404C6.30236 21.7633 5.39908 22.4441 3.82736 22.4441C3.34346 22.4516 2.86299 22.3616 2.41458 22.1794C1.96618 21.9973 1.55902 21.7267 1.21736 21.3837C0.87571 21.0408 0.606565 20.6326 0.425945 20.1834C0.245325 19.7343 0.156934 19.2533 0.166044 18.7692Z" fill="white" fill-opacity="0.75"/>
<path d="M7.70786 16.8114H9.63487V17.9174C9.95041 17.1668 10.4575 16.6788 11.3716 16.7198V18.75H11.2006C10.1973 18.75 9.62763 19.3283 9.62763 20.597V22.3019H7.70062L7.70786 16.8114Z" fill="white" fill-opacity="0.75"/>
<path d="M11.7208 19.5814V19.5621C11.7208 17.9572 12.8674 16.6897 14.4909 16.6897C16.3878 16.6897 17.261 18.0801 17.261 19.6934C17.261 19.8139 17.261 19.9573 17.2513 20.0898H13.5792C13.7309 20.6922 14.1669 20.9922 14.7655 20.9922C15.222 20.9922 15.5869 20.82 15.9831 20.4344L17.0478 21.3176C16.5215 21.9875 15.7603 22.4333 14.6643 22.4333C12.9385 22.4333 11.7208 21.2874 11.7208 19.5814ZM15.4544 19.0994C15.3833 18.4898 15.0281 18.1042 14.5005 18.1042C13.9935 18.1042 13.649 18.4994 13.5467 19.0994H15.4544Z" fill="white" fill-opacity="0.75"/>
<path d="M17.8788 19.5813V19.5621C17.8788 17.7753 18.9953 16.6897 20.2876 16.6897C21.1186 16.6897 21.6124 17.0644 21.9737 17.4813V14.8932H23.9007V22.3019H21.9737V21.5706C21.598 22.0272 21.121 22.4236 20.2997 22.4236C19.005 22.4236 17.8788 21.3368 17.8788 19.5813ZM22.0087 19.5621V19.5416C22.0087 18.8187 21.5101 18.303 20.891 18.303C20.272 18.303 19.7661 18.8102 19.7661 19.5416V19.5621C19.7661 20.2922 20.272 20.8091 20.891 20.8091C21.5101 20.8091 22.0087 20.2922 22.0087 19.5621Z" fill="white" fill-opacity="0.75"/>
</g>
<defs>
<clipPath id="clip0_1_80">
<rect width="64.8294" height="27.584" fill="white" transform="translate(0.166016)"/>
</clipPath>
</defs>
</svg>
