<svg width="69" height="27" viewBox="0 0 69 27" fill="none" xmlns="http://www.w3.org/2000/svg">
<g clip-path="url(#clip0_1_53)">
<path d="M1.7149e-05 19.418V19.397C1.7149e-05 17.2967 1.61306 15.6571 3.79178 15.6571C5.26059 15.6571 6.20712 16.2732 6.84281 17.1567L5.3446 18.3161C4.93294 17.8022 4.46107 17.4759 3.77217 17.4759C2.76543 17.4759 2.05692 18.3287 2.05692 19.376V19.397C2.05692 20.4766 2.76543 21.3195 3.77217 21.3195C4.52268 21.3195 4.96374 20.9694 5.395 20.4458L6.89602 21.5141C6.21832 22.4481 5.30399 23.137 3.71055 23.137C3.22037 23.1449 2.7336 23.0541 2.27926 22.87C1.82492 22.6858 1.41232 22.412 1.06605 22.065C0.71978 21.7179 0.446934 21.3047 0.263786 20.8499C0.0806381 20.3952 -0.00907083 19.9082 1.7149e-05 19.418Z" fill="white" fill-opacity="0.75"/>
<path d="M7.63391 17.4353H9.5858V18.5555C9.90505 17.7952 10.4259 17.2953 11.343 17.3429V19.397H11.1792C10.1627 19.397 9.5858 19.9837 9.5858 21.2677V22.9941H7.63391V17.4353Z" fill="white" fill-opacity="0.75"/>
<path d="M11.7029 20.2399V20.2189C11.7029 18.5961 12.8636 17.3121 14.5033 17.3121C16.4258 17.3121 17.3037 18.7123 17.3037 20.3519C17.3037 20.4766 17.3037 20.6194 17.2925 20.7538H13.5735C13.7276 21.3601 14.1686 21.6681 14.7763 21.6681C15.2384 21.6681 15.608 21.4931 16.0085 21.1081L17.0881 22.0028C16.5532 22.6805 15.7831 23.1327 14.6727 23.1327C12.9365 23.1271 11.7029 21.9664 11.7029 20.2399ZM15.4834 19.7569C15.412 19.1408 15.0522 18.7501 14.5187 18.7501C13.9852 18.7501 13.6548 19.1506 13.5525 19.7569H15.4834Z" fill="white" fill-opacity="0.75"/>
<path d="M17.9464 20.2399V20.2189C17.9464 18.4113 19.0764 17.3121 20.3926 17.3121C20.7193 17.3054 21.0431 17.3742 21.3389 17.5131C21.6347 17.652 21.8945 17.8573 22.098 18.113V15.4933H24.0499V22.9941H22.091V22.2534C21.7102 22.7155 21.2271 23.1174 20.3954 23.1174C19.0806 23.1174 17.9464 22.0168 17.9464 20.2399ZM22.1288 20.2189V20.1979C22.1288 19.4698 21.6248 18.9378 20.9989 18.9378C20.373 18.9378 19.8577 19.4516 19.8577 20.1979V20.2189C19.8577 20.9582 20.3716 21.4791 20.9989 21.4791C21.6262 21.4791 22.1218 20.9582 22.1218 20.2189H22.1288Z" fill="white" fill-opacity="0.75"/>
<path d="M24.9712 15.7957H26.9749V22.9885H24.9712V15.7957Z" fill="white" fill-opacity="0.75"/>
<path d="M27.8794 15.7957H33.6637V17.4913H29.8481V18.5807H33.301V20.1517H29.8481V21.2929H33.7127V22.9885H27.8766L27.8794 15.7957Z" fill="white" fill-opacity="0.75"/>
<path d="M34.1887 21.9244L35.2977 20.5998C35.953 21.1469 36.7768 21.4515 37.6304 21.4623C38.1653 21.4623 38.4537 21.2775 38.4537 20.9694V20.9484C38.4537 20.6502 38.2171 20.4864 37.2398 20.2609C35.7093 19.9109 34.5276 19.4796 34.5276 17.9996V17.9786C34.5276 16.6428 35.5861 15.6781 37.3126 15.6781C38.535 15.6781 39.4899 16.0057 40.2712 16.633L39.2742 18.0332C38.69 17.5992 37.988 17.3522 37.2608 17.3247C36.7777 17.3247 36.5411 17.5305 36.5411 17.7868V17.8078C36.5411 18.1368 36.7889 18.2811 37.7858 18.5079C39.4395 18.8677 40.4672 19.4012 40.4672 20.7482V20.7692C40.4672 22.238 39.3051 23.1118 37.559 23.1118C36.289 23.1174 35.0708 22.7155 34.1887 21.9244Z" fill="white" fill-opacity="0.75"/>
<path d="M67.7614 0.0966298C67.6265 0.0213244 67.4719 -0.01148 67.318 0.00251089C67.1641 0.0165018 67.018 0.0766357 66.8989 0.175041L66.8583 0.211447C66.8043 0.242237 66.7568 0.283117 66.7183 0.331863L54.5085 10.3895C54.4756 10.4269 54.4491 10.4695 54.4301 10.5155C54.418 10.495 54.404 10.4758 54.3881 10.4581L42.1797 0.403275C42.1459 0.358159 42.1024 0.321292 42.0523 0.295456L42.0075 0.254853C41.8891 0.157251 41.7408 0.103354 41.5874 0.102227C41.492 0.101651 41.3975 0.121273 41.3103 0.159803C41.223 0.198333 41.1448 0.254901 41.0809 0.325787C41.017 0.396672 40.9689 0.480267 40.9396 0.571087C40.9104 0.661907 40.9007 0.7579 40.9111 0.852743L42.1251 12.0124C42.151 12.246 42.2534 12.4646 42.4163 12.634C42.4322 12.6548 42.45 12.6741 42.4696 12.6915L42.5018 12.7181L42.5424 12.7503L46.7528 16.1444L45.4744 17.0447C45.2538 17.2075 45.1065 17.4507 45.0642 17.7215C45.022 17.9924 45.0884 18.2689 45.249 18.4911L50.9548 26.3644C51.0175 26.4516 51.1002 26.5225 51.1959 26.5712C51.2917 26.6199 51.3977 26.6451 51.5051 26.6445C51.5617 26.6448 51.6181 26.6382 51.6731 26.6249C51.8057 26.5943 51.926 26.5246 52.0184 26.4247C52.1108 26.3248 52.171 26.1994 52.1912 26.0648L54.4315 11.7183L56.6718 26.0816C56.6946 26.2368 56.7638 26.3814 56.8702 26.4966C56.9767 26.6117 57.1154 26.6921 57.2683 26.7271C57.3311 26.7425 57.3955 26.7505 57.4601 26.7509C57.5841 26.7508 57.7063 26.7211 57.8164 26.6641C57.9265 26.607 58.0214 26.5245 58.093 26.4232L63.8731 18.4645C64.0491 18.2195 64.1215 17.915 64.0746 17.617C64.0276 17.319 63.8652 17.0515 63.6224 16.8725L62.449 16.0645L66.4998 12.8245L66.532 12.7979L66.5642 12.7727C66.5878 12.7523 66.6093 12.7298 66.6287 12.7055C66.8065 12.5191 66.9182 12.2796 66.9465 12.0236L68.1605 0.863938C68.179 0.710725 68.1508 0.555484 68.0796 0.418564C68.0084 0.281643 67.8975 0.169433 67.7614 0.0966298ZM43.087 12.6579L42.7902 12.4282L42.758 12.403L42.7454 12.3918L42.7146 12.3568C42.6134 12.2524 42.5494 12.1176 42.5326 11.9732L41.3186 0.813533C41.3134 0.777137 41.3163 0.740036 41.3272 0.70492C41.3381 0.669804 41.3567 0.63755 41.3816 0.610502C41.4075 0.581411 41.4392 0.558047 41.4746 0.541893C41.5101 0.52574 41.5485 0.517154 41.5874 0.516691C41.6444 0.517797 41.6995 0.537465 41.7442 0.572702L41.7792 0.604904L41.8227 0.641311L41.8605 0.662309L41.8815 0.691716L41.9207 0.723918L54.2425 10.874L47.1014 15.8993L43.087 12.6579ZM63.5426 18.2237L57.7682 26.1838C57.7241 26.2451 57.6628 26.2918 57.592 26.318C57.5213 26.3443 57.4443 26.3488 57.3709 26.3311C57.2976 26.3133 57.2312 26.2741 57.1802 26.2185C57.1293 26.1628 57.0961 26.0932 57.0849 26.0186L54.7619 11.231L62.1228 16.297L63.383 17.2057C63.538 17.3204 63.6417 17.4914 63.6716 17.6819C63.7014 17.8724 63.6551 18.067 63.5426 18.2237Z" fill="white" fill-opacity="0.75"/>
</g>
<defs>
<clipPath id="clip0_1_53">
<rect width="68.1661" height="26.7523" fill="white"/>
</clipPath>
</defs>
</svg>
