<svg width="80" height="18" viewBox="0 0 80 18" fill="none" xmlns="http://www.w3.org/2000/svg">
<path d="M77.5038 11.7929L77.5315 4.9226C77.4353 4.9226 74.4458 4.9226 70.9516 4.9226L70.9537 2.7851C70.9537 2.77532 70.9537 2.76896 70.9521 2.7626C70.9521 2.7582 70.9521 2.75379 70.9521 2.74939V2.71956L70.9511 2.71809L70.9139 2.62564C70.8826 2.57722 70.8353 2.542 70.7758 2.52733L70.7118 2.5195H65.0796V4.92162C62.1456 4.92113 59.8519 4.92113 59.8519 4.92113C59.8464 4.92113 59.8403 4.92113 59.8353 4.92162H59.8287C59.7632 4.92456 59.7103 4.97591 59.7103 5.04048V5.06396C59.7103 5.06396 59.7113 5.06053 59.7118 5.05711C59.7118 5.06102 59.7103 5.06494 59.7103 5.06494L59.7269 8.50499H59.738L59.7103 15.3768H77.3622C77.4559 15.3758 77.531 15.3024 77.531 15.2129L77.5144 11.7929H77.5033H77.5038ZM65.4932 2.92059H69.8564L65.4932 4.66825V2.92108V2.92059ZM69.1768 3.62689L70.4126 4.92211H65.9446L69.1768 3.62689ZM77.1164 5.32369L77.0907 11.7915L77.0887 12.194H77.1033L77.1164 14.8979L60.8101 5.32271C64.0992 5.32271 74.86 5.3232 77.1164 5.32369ZM77.0821 15.3308C77.0685 15.3264 77.0559 15.3225 77.0418 15.3166C77.0554 15.3225 77.0685 15.3264 77.0821 15.3308ZM59.7461 5.15347L59.7481 5.15591C59.7582 5.16716 59.7743 5.17548 59.7879 5.18526C59.7743 5.17548 59.7582 5.16716 59.7481 5.15591L59.7461 5.15347ZM77.2418 15.3709C77.261 15.3734 77.2821 15.3734 77.3018 15.3743C77.2816 15.3734 77.261 15.3734 77.2418 15.3709ZM77.1395 15.3509C77.1562 15.3558 77.1738 15.3577 77.1909 15.3616C77.1738 15.3577 77.1562 15.3558 77.1395 15.3509Z" fill="white" fill-opacity="0.75"/>
<path d="M26.9612 11.9514V11.9314C26.9612 9.92348 28.5531 8.34848 30.7023 8.34848C32.1516 8.34848 33.0851 8.93935 33.7133 9.78506L32.2332 10.8983C31.8277 10.4058 31.3607 10.0908 30.6821 10.0908C29.6876 10.0908 28.9889 10.9081 28.9889 11.9123V11.9319C28.9889 12.9654 29.6876 13.7729 30.6821 13.7729C31.4227 13.7729 31.8574 13.4379 32.2836 12.936L33.7642 13.9603C33.0952 14.8559 32.1924 15.5152 30.6211 15.5152C28.5934 15.5152 26.9607 14.0087 26.9607 11.9519L26.9612 11.9514Z" fill="white" fill-opacity="0.75"/>
<path d="M34.1597 11.9514V11.9314C34.1597 9.95234 35.8025 8.34848 37.9924 8.34848C40.1824 8.34848 41.8055 9.93277 41.8055 11.9118V11.9314C41.8055 13.9104 40.1627 15.5147 37.9723 15.5147C35.7819 15.5147 34.1597 13.929 34.1597 11.9514ZM39.797 11.9514V11.9314C39.797 10.937 39.0574 10.0712 37.9723 10.0712C36.8872 10.0712 36.1773 10.9169 36.1773 11.9118V11.9314C36.1773 12.9258 36.9179 13.792 37.9924 13.792C39.067 13.792 39.797 12.9453 39.797 11.9514Z" fill="white" fill-opacity="0.75"/>
<path d="M42.6257 8.48691H45.9819C47.0665 8.48691 47.8171 8.76229 48.2932 9.23479C48.7088 9.62805 48.9219 10.1602 48.9219 10.8391V10.8592C48.9219 11.9123 48.3446 12.6117 47.462 12.9757L49.1552 15.3778H46.8836L45.4539 13.2907H44.5924V15.3778H42.6252V8.48691H42.6257ZM45.8907 11.7939C46.5597 11.7939 46.9451 11.4789 46.9451 10.9771V10.9565C46.9451 10.4151 46.54 10.1402 45.8801 10.1402H44.5929V11.7939H45.8907Z" fill="white" fill-opacity="0.75"/>
<path d="M49.7128 8.48691H52.7546C54.5491 8.48691 55.7058 9.38251 55.7058 10.9081V10.9277C55.7058 12.5526 54.4176 13.4085 52.6539 13.4085H51.6806V15.3773H49.7133V8.48691H49.7128ZM52.6126 11.9123C53.3118 11.9123 53.738 11.5572 53.738 11.0162V10.9966C53.738 10.4058 53.3118 10.0908 52.6025 10.0908H51.6801V11.9123H52.6126Z" fill="white" fill-opacity="0.75"/>
<path d="M2.46851 11.9514V11.9314C2.46851 9.92348 4.05994 8.34848 6.20956 8.34848C7.65994 8.34848 8.59193 8.93935 9.22115 9.78506L7.74004 10.8983C7.335 10.4058 6.868 10.0908 6.18891 10.0908C5.19596 10.0908 4.49621 10.9081 4.49621 11.9123V11.9319C4.49621 12.9654 5.19596 13.7729 6.18891 13.7729C6.92896 13.7729 7.36523 13.4379 7.79092 12.936L9.27153 13.9603C8.60201 14.8559 7.69974 15.5152 6.12846 15.5152C4.10125 15.5152 2.46851 14.0087 2.46851 11.9519V11.9514Z" fill="white" fill-opacity="0.75"/>
<path d="M10.0015 10.0516H11.928V11.1243C12.2418 10.396 12.7491 9.92349 13.6615 9.96262V11.9314H13.4992C12.4952 11.9314 11.9275 12.4924 11.9275 13.7235V15.3773H10.001V10.0516H10.0015Z" fill="white" fill-opacity="0.75"/>
<path d="M14.0161 12.7389V12.7193C14.0161 11.1634 15.1622 9.93277 16.7844 9.93277C18.6806 9.93277 19.5521 11.2823 19.5521 12.8475C19.5521 12.9649 19.5521 13.1033 19.5421 13.231H15.872C16.0247 13.8116 16.4604 14.107 17.0584 14.107C17.5149 14.107 17.8796 13.9392 18.2751 13.5655L19.3395 14.4235C18.8126 15.0721 18.0524 15.5049 16.9572 15.5049C15.2337 15.5049 14.0166 14.3927 14.0166 12.7389H14.0161ZM17.7476 12.2762C17.6766 11.6853 17.3219 11.3116 16.795 11.3116C16.268 11.3116 15.9431 11.6956 15.8413 12.2762H17.7476Z" fill="white" fill-opacity="0.75"/>
<path d="M20.1708 12.7389V12.7193C20.1708 10.9868 21.2861 9.93277 22.5839 9.93277C23.4146 9.93277 23.9018 10.2977 24.2665 10.7007V8.19098H26.1934V15.3773H24.2665V14.6685C23.8912 15.1122 23.4151 15.4957 22.5934 15.4957C21.2957 15.4957 20.1708 14.4421 20.1708 12.7389ZM24.2972 12.7193V12.6998C24.2972 11.9998 23.8 11.4985 23.1814 11.4985C22.5627 11.4985 22.0569 11.9905 22.0569 12.6998V12.7193C22.0569 13.4281 22.5637 13.9295 23.1814 13.9295C23.799 13.9295 24.2972 13.4281 24.2972 12.7193Z" fill="white" fill-opacity="0.75"/>
</svg>
