<svg width="69" height="26" viewBox="0 0 69 26" fill="none" xmlns="http://www.w3.org/2000/svg">
<g clip-path="url(#clip0_1_62)">
<path d="M0.185303 18.9074V18.8865C0.185303 16.806 1.78229 15.1692 3.93863 15.1692C5.39318 15.1692 6.3289 15.7814 6.95889 16.6596L5.47424 17.812C5.06776 17.302 4.59989 16.9756 3.91778 16.9756C2.92184 16.9756 2.22005 17.8224 2.22005 18.8633V18.883C2.22005 19.9541 2.92184 20.7905 3.91778 20.7905C4.66127 20.7905 5.09786 20.442 5.52519 19.9239L7.00986 20.9845C6.33933 21.9139 5.43372 22.5969 3.85757 22.5969C1.82515 22.6004 0.185303 21.0391 0.185303 18.9074Z" fill="white" fill-opacity="0.75"/>
<path d="M7.74176 16.9419H9.6746V18.0536C9.98959 17.2985 10.498 16.8095 11.4117 16.8501V18.89H11.2484C10.242 18.89 9.67228 19.4709 9.67228 20.7487V22.4622H7.73944L7.74176 16.9419Z" fill="white" fill-opacity="0.75"/>
<path d="M11.7695 19.7229V19.7032C11.7695 18.0908 12.9183 16.8152 14.5489 16.8152C16.4516 16.8152 17.3283 18.2093 17.3283 19.8356C17.3283 19.9576 17.3283 20.1005 17.3179 20.2329H13.6364C13.7892 20.8358 14.2258 21.1413 14.8269 21.1413C15.2901 21.1413 15.6503 20.9682 16.0475 20.5802L17.1117 21.4724C16.5825 22.1462 15.8193 22.5946 14.7215 22.5946C12.9901 22.5899 11.7695 21.4376 11.7695 19.7229ZM15.5124 19.2443C15.4406 18.6321 15.0851 18.2441 14.5559 18.2441C14.0475 18.2441 13.7024 18.6414 13.6005 19.2443H15.5124Z" fill="white" fill-opacity="0.75"/>
<path d="M17.9433 19.7229V19.7032C17.9433 17.9072 19.062 16.8153 20.3636 16.8153C21.1975 16.8153 21.685 17.1928 22.0521 17.611V15.01H23.9838V22.4575H22.0521V21.7233C21.6758 22.188 21.1975 22.5795 20.3741 22.5795C19.0712 22.5795 17.9433 21.4887 17.9433 19.7229ZM22.0822 19.7032V19.6823C22.0822 18.9586 21.5843 18.4381 20.9635 18.4381C20.3428 18.4381 19.8344 18.9481 19.8344 19.6823V19.7032C19.8344 20.4374 20.3428 20.9578 20.9635 20.9578C21.5843 20.9578 22.0822 20.4374 22.0822 19.7032Z" fill="white" fill-opacity="0.75"/>
<path d="M25.1326 15.3156H26.9739L29.9027 19.091V15.3156H31.8564V22.4575H30.1274L27.0863 18.5404V22.4575H25.1326V15.3156Z" fill="white" fill-opacity="0.75"/>
<path d="M33.1164 15.3156H38.8431V16.9988H35.0689V18.0803H38.4864V19.6416H35.0689V20.7754H38.8905V22.4587H33.1164V15.3156Z" fill="white" fill-opacity="0.75"/>
<path d="M39.6051 18.9074V18.8865C39.6051 16.8362 41.253 15.1692 43.4499 15.1692C45.6468 15.1692 47.2715 16.8118 47.2715 18.8633V18.883C47.2715 20.9334 45.6236 22.6004 43.4267 22.6004C41.2299 22.6004 39.6051 20.9578 39.6051 18.9074ZM45.26 18.9074V18.8865C45.26 17.8561 44.5176 16.9581 43.429 16.9581C42.3404 16.9581 41.6294 17.8364 41.6294 18.8668V18.8865C41.6294 19.9169 42.3717 20.8149 43.4499 20.8149C44.5281 20.8149 45.26 19.9378 45.26 18.9074Z" fill="white" fill-opacity="0.75"/>
<path d="M68.374 10.1646C68.374 10.1542 68.374 10.1437 68.374 10.1333C68.374 10.1228 68.374 10.1077 68.374 10.0938C68.374 10.0798 68.374 10.074 68.374 10.0647C68.374 10.0555 68.374 10.0357 68.3659 10.0218C68.3578 10.0078 68.3659 10.0043 68.3659 9.99621C68.3659 9.98808 68.3543 9.95207 68.3474 9.93L68.3404 9.9114L68.3231 9.86494C68.3231 9.85565 68.315 9.84751 68.3115 9.83822C68.308 9.82893 68.3011 9.81383 68.2941 9.80105L68.2802 9.77316L68.2617 9.73948L68.2443 9.71276C68.2385 9.70231 68.2316 9.69185 68.2246 9.68139C68.2177 9.67094 68.2119 9.66397 68.2049 9.65468C68.1982 9.64452 68.1909 9.63481 68.1829 9.62564L68.1621 9.60008L68.1378 9.5722L68.1158 9.54896L68.0891 9.52225L68.0648 9.50017L68.0359 9.47578L68.0104 9.45603L67.9791 9.43396L67.9525 9.41653L67.9189 9.39562L67.8923 9.38052L67.854 9.3631L67.8274 9.35032L67.7857 9.33405L67.7602 9.3236L67.7081 9.30849H67.6908C67.6664 9.30849 67.6421 9.29688 67.6178 9.29339H67.6039L67.5425 9.28527H67.4649H67.4093H67.3792C67.3503 9.28527 67.3225 9.29223 67.2935 9.29688L60.3127 10.5643L66.2941 0.717904C66.3552 0.625274 66.3812 0.513759 66.3674 0.403569C66.3535 0.293379 66.3008 0.1918 66.2188 0.117227C66.1368 0.0426541 66.0308 2.05808e-05 65.9201 -0.00294679C65.8094 -0.00591416 65.7014 0.0309838 65.6155 0.101054L49.055 12.6077C49.0341 12.6228 49.0145 12.639 48.9948 12.6564L48.9774 12.6727C48.9647 12.6843 48.9519 12.6959 48.9403 12.7087L48.9218 12.7296C48.9112 12.7403 48.9011 12.7516 48.8917 12.7633C48.8848 12.7703 48.879 12.7784 48.8732 12.7854L48.8465 12.8214L48.8315 12.8435L48.8072 12.8818L48.7944 12.9039V12.9109L48.7747 12.9492L48.7666 12.9655C48.7585 12.9852 48.7493 13.0049 48.7423 13.0259C48.7423 13.0317 48.7423 13.0363 48.7423 13.0421C48.7423 13.0479 48.7307 13.0746 48.7261 13.0909C48.7215 13.1072 48.7261 13.106 48.7261 13.1141C48.7261 13.1223 48.7191 13.142 48.7168 13.156C48.7145 13.1699 48.7168 13.1722 48.711 13.1815C48.7052 13.1908 48.711 13.2082 48.711 13.221V13.2477C48.711 13.2617 48.711 13.2745 48.711 13.2884C48.711 13.3023 48.711 13.3058 48.711 13.314V13.3244V13.379C48.711 13.3976 48.711 13.4162 48.711 13.4348V13.4441C48.711 13.4638 48.711 13.4847 48.7203 13.5045C48.7203 13.5289 48.7307 13.5533 48.7365 13.5777C48.7365 13.5997 48.7493 13.623 48.7562 13.645L48.7655 13.6683C48.7655 13.6834 48.777 13.6996 48.784 13.7147C48.7909 13.7298 48.7921 13.7322 48.7956 13.7415C48.799 13.7507 48.8083 13.7693 48.8153 13.7821L48.8303 13.8088C48.8373 13.8216 48.8454 13.8344 48.8535 13.8472L48.8697 13.8739L48.8963 13.9099L48.9137 13.9343L48.945 13.9715C48.9519 13.9715 48.9566 13.9842 48.9635 13.9912C48.9705 13.9982 48.9901 14.0191 49.004 14.0319L49.0168 14.0447L49.0758 14.0934L49.0909 14.1039C49.1059 14.1155 49.1222 14.126 49.1384 14.1364L49.1627 14.1515C49.1766 14.1597 49.1905 14.1678 49.2055 14.1748L49.2333 14.1887L49.2773 14.2084L49.3074 14.2201L49.3526 14.2352L49.385 14.2445L49.4348 14.2561L49.4661 14.263L49.5228 14.2712H49.5506C49.5796 14.2712 49.6085 14.2712 49.6387 14.2712H54.2559L47.8691 24.7541C47.8078 24.8464 47.7814 24.9577 47.7947 25.0678C47.808 25.1779 47.8601 25.2797 47.9416 25.3546C48.0232 25.4295 48.1288 25.4727 48.2393 25.4764C48.3498 25.48 48.458 25.4439 48.5443 25.3745L63.5113 14.2712L68.0671 10.9012C68.088 10.8818 68.1077 10.862 68.1262 10.8419L68.1424 10.8233C68.1551 10.8094 68.1679 10.7943 68.1783 10.7803L68.1968 10.7559L68.2246 10.7164C68.2246 10.7083 68.235 10.699 68.2408 10.6897C68.2466 10.6804 68.2559 10.6642 68.2628 10.6514C68.2698 10.6386 68.2733 10.6316 68.2779 10.6223L68.2964 10.584C68.2964 10.5747 68.3045 10.5643 68.308 10.5538C68.3115 10.5434 68.3184 10.5283 68.3231 10.5155C68.3267 10.5056 68.3298 10.4955 68.3323 10.4853C68.3323 10.4725 68.3404 10.4597 68.3439 10.4469L68.3508 10.4144L68.3578 10.3761C68.3578 10.3656 68.3578 10.3552 68.3578 10.3447V10.3064V10.2738V10.2355C68.3584 10.2251 68.3584 10.2146 68.3578 10.2041C68.3752 10.1902 68.3752 10.1774 68.374 10.1646ZM67.795 10.5585L67.7869 10.5654L63.3283 13.8448H49.5981C49.4802 13.8479 49.3653 13.8071 49.2755 13.7304C49.1857 13.6536 49.1274 13.5463 49.1117 13.429C49.0983 13.3593 49.1009 13.2875 49.1193 13.2191C49.1378 13.1506 49.1716 13.0873 49.2183 13.034L49.2333 13.0154L67.3526 9.72787C67.3861 9.721 67.4203 9.7175 67.4545 9.71741C67.5527 9.71877 67.6482 9.75021 67.7281 9.80751C67.808 9.86481 67.8685 9.94525 67.9015 10.038C67.9378 10.1256 67.9469 10.2221 67.9277 10.3149C67.9085 10.4078 67.8618 10.4926 67.7938 10.5585H67.795Z" fill="white" fill-opacity="0.75"/>
</g>
<defs>
<clipPath id="clip0_1_62">
<rect width="68.1899" height="25.4837" fill="white" transform="translate(0.185303)"/>
</clipPath>
</defs>
</svg>
