<svg width="130" height="19" viewBox="0 0 130 19" fill="none" xmlns="http://www.w3.org/2000/svg">
<g clip-path="url(#clip0_1_89)">
<path d="M22.6581 0.196045H26.0256L28.7686 4.61788L31.5116 0.196045H34.8805V11.6147H31.709V5.05755L28.7686 9.527H28.7028L25.7791 5.08975V11.6147H22.6581V0.196045Z" fill="white" fill-opacity="0.75"/>
<path d="M40.4239 0.114838H43.4973L48.398 11.6147H44.9815L44.1414 9.57601H39.7014L38.8767 11.6147H35.5288L40.4239 0.114838ZM43.2243 7.11585L41.9347 3.86598L40.6381 7.11165L43.2243 7.11585Z" fill="white" fill-opacity="0.75"/>
<path d="M49.0701 0.196045H52.2738V11.6147H49.0701V0.196045Z" fill="white" fill-opacity="0.75"/>
<path d="M53.1587 9.91903L54.9328 7.81872C56.0655 8.71625 57.3313 9.18812 58.6615 9.18812C59.5156 9.18812 59.9763 8.89548 59.9763 8.40541V8.3732C59.9763 7.89993 59.5982 7.63949 58.037 7.27964C55.5895 6.71956 53.6964 6.04046 53.6964 3.69092V3.65871C53.6964 1.53881 55.3878 0.00558472 58.1476 0.00558472C60.1079 0.00558472 61.6313 0.526463 62.8789 1.52201L61.2855 3.76233C60.2339 3.02863 59.0844 2.64217 58.065 2.64217C57.2921 2.64217 56.9141 2.96842 56.9141 3.37587V3.40948C56.9141 3.93035 57.3089 4.15999 58.9023 4.51844C61.5473 5.08972 63.1898 5.93684 63.1898 8.07355V8.10716C63.1898 10.4399 61.3331 11.8261 58.5411 11.8261C56.5192 11.8107 54.5771 11.175 53.1587 9.91903Z" fill="white" fill-opacity="0.75"/>
<path d="M68.2893 0.113434H70.1614L75.2217 11.6147H73.0864L71.9214 8.8577H66.4816L65.2985 11.6147H63.229L68.2893 0.113434ZM71.1807 7.08645L69.1924 2.51898L67.2209 7.08645H71.1807Z" fill="white" fill-opacity="0.75"/>
<path d="M81.2398 11.8107C80.4392 11.8189 79.6454 11.6636 78.907 11.3543C78.2148 11.0619 77.5857 10.6382 77.0546 10.1067C76.5255 9.57024 76.1068 8.93514 75.8224 8.23741C75.5216 7.50846 75.3693 6.72682 75.3743 5.93827V5.90467C75.3688 5.11916 75.5182 4.34027 75.814 3.61254C76.0995 2.90912 76.521 2.26898 77.0544 1.72883C77.5878 1.18868 78.2226 0.75915 78.9224 0.464881C79.6817 0.147251 80.4981 -0.0109742 81.321 1.69715e-05C81.8034 -0.00404446 82.2851 0.0395727 82.759 0.130235C83.1677 0.209476 83.5667 0.332468 83.9492 0.497087C84.3016 0.649017 84.6376 0.836693 84.9517 1.05717C85.2594 1.27469 85.5505 1.51479 85.8226 1.77547L84.5246 3.25969C84.0873 2.85106 83.5953 2.50517 83.0628 2.23194C82.5162 1.96308 81.9133 1.82867 81.3042 1.83988C80.7808 1.83499 80.2625 1.94342 79.785 2.15773C79.3292 2.36321 78.9189 2.65737 78.578 3.02305C78.2336 3.39393 77.9653 3.82873 77.7883 4.30284C77.5999 4.80358 77.5049 5.33466 77.5082 5.86967V5.90187C77.5055 6.43957 77.6003 6.9733 77.7883 7.4771C77.9652 7.95631 78.2334 8.39664 78.578 8.77368C78.9167 9.14365 79.3274 9.44051 79.785 9.64601C80.2623 9.86096 80.7807 9.96941 81.3042 9.96386C81.9303 9.9809 82.5511 9.84387 83.1118 9.5648C83.6555 9.26977 84.1582 8.90497 84.6073 8.47965L85.9052 9.78463C85.6208 10.0911 85.3102 10.3722 84.9769 10.6248C84.651 10.871 84.3016 11.0844 83.9338 11.2618C83.5439 11.447 83.133 11.5838 82.71 11.6693C82.226 11.7665 81.7334 11.8139 81.2398 11.8107Z" fill="white" fill-opacity="0.75"/>
<path d="M87.4175 0.194611H95.9279V2.00647H89.424V4.9469H95.19V6.75736H89.424V9.80841H96.0049V11.6189H87.4119L87.4175 0.194611Z" fill="white" fill-opacity="0.75"/>
<path d="M102.016 11.7785C101.147 11.7819 100.284 11.6297 99.469 11.329C98.6373 11.018 97.873 10.5503 97.2175 9.95124L98.4343 8.51464C98.9422 8.96138 99.5119 9.33253 100.126 9.6166C100.738 9.88051 101.399 10.0113 102.065 10.0003C102.69 10.0003 103.185 9.86864 103.552 9.6082C103.725 9.49491 103.866 9.33965 103.962 9.15695C104.058 8.97425 104.107 8.7701 104.102 8.56364V8.53144C104.106 8.34379 104.069 8.15757 103.994 7.98536C103.903 7.80426 103.767 7.64951 103.6 7.53589C103.355 7.36943 103.089 7.23795 102.809 7.14524C102.38 6.99905 101.943 6.87934 101.499 6.78679C100.943 6.66267 100.396 6.50176 99.8611 6.30512C99.4289 6.15089 99.0232 5.9308 98.6583 5.65262C98.3399 5.4033 98.0856 5.0817 97.9162 4.71449C97.7361 4.29178 97.6492 3.83522 97.6614 3.37589V3.34369C97.6556 2.88854 97.7515 2.43784 97.9418 2.02438C98.1322 1.61092 98.4124 1.2451 98.7619 0.953544C99.1268 0.652389 99.5454 0.422926 99.9955 0.277244C100.504 0.109367 101.037 0.0265754 101.572 0.0322081C102.346 0.0206027 103.116 0.144765 103.847 0.399061C104.533 0.650657 105.174 1.01143 105.745 1.46742L104.661 2.98524C104.179 2.62948 103.655 2.33592 103.1 2.11151C102.603 1.91448 102.073 1.81237 101.539 1.81047C100.948 1.81047 100.488 1.94115 100.159 2.20252C100.007 2.3122 99.8821 2.45662 99.7962 2.62387C99.7102 2.79113 99.6653 2.97642 99.6651 3.16446V3.19667C99.6614 3.39603 99.701 3.59381 99.7813 3.77635C99.8762 3.96454 100.022 4.1226 100.201 4.23282C100.464 4.39663 100.746 4.5256 101.041 4.61647C101.399 4.73689 101.852 4.86198 102.4 4.99173C102.945 5.12544 103.482 5.29428 104.006 5.4972C104.429 5.65573 104.822 5.88488 105.168 6.1749C105.467 6.42934 105.706 6.74685 105.868 7.10463C106.035 7.49309 106.116 7.91276 106.107 8.33541V8.36902C106.115 8.86386 106.012 9.3542 105.806 9.80422C105.61 10.2213 105.323 10.5892 104.966 10.881C104.584 11.1872 104.146 11.4146 103.675 11.5503C103.136 11.7071 102.577 11.784 102.016 11.7785Z" fill="white" fill-opacity="0.75"/>
<path d="M111.967 11.7785C111.098 11.7817 110.236 11.6294 109.42 11.329C108.589 11.018 107.825 10.5503 107.17 9.95123L108.386 8.51463C108.894 8.96142 109.464 9.33256 110.078 9.61659C110.69 9.8805 111.35 10.0113 112.016 10.0002C112.641 10.0002 113.136 9.86956 113.503 9.60818C113.676 9.4949 113.817 9.33963 113.913 9.15693C114.009 8.97424 114.058 8.77009 114.054 8.56363V8.53143C114.058 8.34388 114.021 8.15766 113.947 7.98535C113.856 7.80425 113.72 7.6495 113.552 7.53588C113.308 7.36942 113.042 7.23793 112.761 7.14523C112.333 6.99904 111.895 6.87932 111.452 6.78677C110.895 6.66264 110.348 6.50174 109.812 6.30511C109.38 6.15025 108.975 5.9302 108.61 5.65261C108.292 5.40324 108.038 5.08163 107.869 4.71447C107.688 4.29197 107.601 3.83526 107.614 3.37588V3.34367C107.608 2.87875 107.708 2.41861 107.907 1.99808C108.098 1.59641 108.373 1.24028 108.713 0.953528C109.079 0.652359 109.498 0.422904 109.948 0.277227C110.456 0.109253 110.988 0.0264568 111.523 0.0321918C112.297 0.0204706 113.068 0.144636 113.799 0.399044C114.485 0.650617 115.126 1.01138 115.697 1.4674L114.612 2.98522C114.131 2.62922 113.607 2.33564 113.052 2.11149C112.555 1.91459 112.026 1.81248 111.491 1.81045C110.898 1.81045 110.438 1.94114 110.111 2.20251C109.958 2.31241 109.834 2.45692 109.748 2.62415C109.663 2.79137 109.618 2.97655 109.618 3.16445V3.19665C109.614 3.39601 109.654 3.59379 109.734 3.77633C109.828 3.965 109.974 4.12322 110.154 4.2328C110.416 4.39635 110.699 4.52531 110.994 4.61646C111.352 4.73687 111.805 4.86196 112.354 4.99171C112.899 5.12563 113.436 5.29447 113.96 5.49719C114.382 5.65571 114.775 5.88487 115.12 6.17488C115.42 6.429 115.659 6.7466 115.821 7.10462C115.987 7.49308 116.069 7.91275 116.06 8.3354V8.369C116.068 8.86402 115.965 9.35451 115.758 9.80421C115.562 10.2217 115.275 10.5897 114.917 10.881C114.535 11.1874 114.096 11.4149 113.625 11.5503C113.087 11.7069 112.528 11.7838 111.967 11.7785Z" fill="white" fill-opacity="0.75"/>
<path d="M123.242 11.8107C122.408 11.8208 121.582 11.6627 120.811 11.3458C120.108 11.0579 119.47 10.6325 118.934 10.0946C118.398 9.55677 117.974 8.91725 117.688 8.21358C117.391 7.4921 117.24 6.71864 117.245 5.93825V5.90465C117.24 5.12427 117.391 4.3508 117.688 3.62932C117.977 2.92787 118.402 2.29029 118.937 1.75305C119.485 1.20801 120.132 0.773085 120.843 0.471865C121.613 0.149881 122.441 -0.0107186 123.275 -2.51678e-06C124.109 -0.0107824 124.935 0.14735 125.706 0.464862C126.409 0.752812 127.047 1.1782 127.583 1.71607C128.119 2.25393 128.543 2.89345 128.828 3.59711C129.126 4.31859 129.277 5.09206 129.272 5.87244V5.90465C129.277 6.6855 129.126 7.45947 128.828 8.18138C128.539 8.88272 128.115 9.52027 127.579 10.0577C127.032 10.6027 126.385 11.0372 125.674 11.3374C124.904 11.6599 124.076 11.8209 123.242 11.8107ZM123.275 9.96664C123.813 9.973 124.346 9.86464 124.838 9.64879C125.298 9.44628 125.713 9.15237 126.056 8.78487C126.399 8.41172 126.669 7.97701 126.85 7.50368C127.04 7.00398 127.135 6.47299 127.13 5.93825V5.90465C127.135 5.36723 127.04 4.83357 126.85 4.33082C126.669 3.85337 126.396 3.41581 126.048 3.04264C125.698 2.67288 125.278 2.37595 124.813 2.16891C124.318 1.95513 123.786 1.84415 123.247 1.8427C122.709 1.84126 122.176 1.94939 121.68 2.16051C121.219 2.3633 120.805 2.6577 120.461 3.02583C120.118 3.39834 119.848 3.83262 119.667 4.30562C119.477 4.80584 119.382 5.33727 119.387 5.87244V5.90465C119.382 6.44252 119.477 6.9766 119.667 7.47988C119.848 7.95733 120.121 8.39489 120.469 8.76807C120.819 9.13738 121.239 9.43383 121.704 9.64039C122.198 9.86126 122.734 9.97256 123.275 9.96664Z" fill="white" fill-opacity="0.75"/>
<path d="M10.6919 5.5H7.97275V8.16879H5.33197V10.776H7.97275V13.4448H10.6919V10.776H13.3327V8.16879H10.6919V5.5Z" fill="white" fill-opacity="0.75"/>
<path d="M0 0.196045V18.8622H18.6647V0.196045H0ZM2.66038 16.199V2.85783H16.0015V16.199H2.66038Z" fill="white" fill-opacity="0.75"/>
<path d="M24.7654 18.8621C23.5542 18.8621 22.6581 17.8988 22.6581 16.6806V16.6694C22.6581 15.4695 23.5542 14.4767 24.778 14.4767C25.5341 14.4767 25.9892 14.7568 26.4246 15.1544L26.2006 15.3854C25.8309 15.0284 25.4067 14.761 24.771 14.761C23.7544 14.761 22.9843 15.5913 22.9843 16.6568V16.6694C22.9843 17.7406 23.7656 18.5765 24.778 18.5765C25.3885 18.5765 25.8071 18.3413 26.237 17.917L26.4484 18.1228C25.9948 18.5681 25.5159 18.8621 24.7654 18.8621Z" fill="white" fill-opacity="0.75"/>
<path d="M32.0632 18.7893L30.7121 17.0279H29.3258V18.7851H29.0108V14.5495H30.7905C31.7062 14.5495 32.3055 15.0466 32.3055 15.7551V15.7677C32.3055 16.4762 31.779 16.8878 31.0635 16.9789L32.4637 18.7907L32.0632 18.7893ZM31.9904 15.7677C31.9904 15.1992 31.5424 14.8407 30.7737 14.8407H29.3258V16.7478H30.7555C31.464 16.7478 31.9904 16.3908 31.9904 15.7789V15.7677Z" fill="white" fill-opacity="0.75"/>
<path d="M35.0849 18.7893V14.5495H38.1009V14.8393H35.3999V16.5056H37.8279V16.7968H35.3999V18.4981H38.1317V18.7893H35.0849ZM36.3269 14.156L36.859 13.3495L37.2286 13.5315L36.5803 14.156H36.3269Z" fill="white" fill-opacity="0.75"/>
<path d="M42.2497 18.7893H40.8369V14.5495H42.2483C43.5799 14.5495 44.5013 15.4638 44.5013 16.6568V16.6694C44.5027 17.868 43.5813 18.7893 42.2497 18.7893ZM44.175 16.6694C44.175 15.6641 43.4301 14.8393 42.2497 14.8393H41.1534V18.4981H42.2497C43.4301 18.4981 44.175 17.693 44.175 16.6778V16.6694Z" fill="white" fill-opacity="0.75"/>
<path d="M47.3128 18.7893V14.5495H47.6265V18.7893H47.3128Z" fill="white" fill-opacity="0.75"/>
<path d="M52.1142 14.8393V18.7893H51.7991V14.8393H50.3219V14.5495H53.5928V14.8393H52.1142Z" fill="white" fill-opacity="0.75"/>
<path d="M57.8494 18.8621C56.5654 18.8621 55.7239 17.8386 55.7239 16.6806V16.6694C55.7239 15.5129 56.578 14.4767 57.862 14.4767C59.146 14.4767 59.9875 15.5003 59.9875 16.6568C59.9875 16.6568 59.9875 16.6568 59.9875 16.6694C59.9875 17.826 59.1334 18.8621 57.8494 18.8621ZM59.6613 16.6694C59.6613 15.6207 58.8982 14.761 57.8494 14.761C56.8006 14.761 56.0515 15.6095 56.0515 16.6568V16.6694C56.0515 17.7168 56.8147 18.5765 57.862 18.5765C58.9094 18.5765 59.6613 17.7294 59.6613 16.6806V16.6694Z" fill="white" fill-opacity="0.75"/>
<path d="M66.2674 18.7893V14.5495H69.2835V14.8393H66.5825V16.5056H69.0118V16.7968H66.5825V18.4981H69.3143V18.7893H66.2674Z" fill="white" fill-opacity="0.75"/>
<path d="M73.4323 18.7893H72.0209V14.5495H73.4323C74.7638 14.5495 75.6852 15.4638 75.6852 16.6568V16.6694C75.6852 17.868 74.7638 18.7893 73.4323 18.7893ZM75.3575 16.6694C75.3575 15.6641 74.6126 14.8393 73.4323 14.8393H72.3415V18.4981H73.4379C74.6182 18.4981 75.3631 17.693 75.3631 16.6778L75.3575 16.6694Z" fill="white" fill-opacity="0.75"/>
<path d="M80.1238 18.8551C79.1073 18.8551 78.3862 18.2138 78.3862 17.0265V14.5495H78.7012V16.9957C78.7012 17.9954 79.2403 18.5709 80.1364 18.5709C80.9962 18.5709 81.5478 18.05 81.5478 17.0307V14.5495H81.8629V16.9901C81.8629 18.2068 81.153 18.8551 80.1238 18.8551Z" fill="white" fill-opacity="0.75"/>
<path d="M86.6712 18.8621C85.46 18.8621 84.5709 17.8988 84.5709 16.6806V16.6694C84.5709 15.4695 85.467 14.4767 86.6894 14.4767C87.4469 14.4767 87.9006 14.7568 88.3374 15.1544L88.1134 15.3854C87.7438 15.0284 87.3195 14.761 86.6838 14.761C85.6659 14.761 84.8972 15.5913 84.8972 16.6568V16.6694C84.8972 17.7406 85.6785 18.5765 86.6894 18.5765C87.3013 18.5765 87.72 18.3413 88.1498 17.917L88.3613 18.1228C87.9062 18.5681 87.4217 18.8621 86.6712 18.8621Z" fill="white" fill-opacity="0.75"/>
<path d="M94.4647 18.7893L93.9256 17.602H91.4249L90.8858 18.7893H90.5581L92.5324 14.5187H92.8349L94.8091 18.7893H94.4647ZM92.678 14.8688L91.5579 17.3219H93.7982L92.678 14.8688Z" fill="white" fill-opacity="0.75"/>
<path d="M99.0742 18.8621C97.863 18.8621 96.9655 17.8988 96.9655 16.6806V16.6694C96.9655 15.4695 97.863 14.4767 99.0854 14.4767C99.8429 14.4767 100.297 14.7568 100.733 15.1544L100.509 15.3854C100.14 15.0284 99.7155 14.761 99.0798 14.761C98.0618 14.761 97.2931 15.5913 97.2931 16.6568V16.6694C97.2931 17.7406 98.0744 18.5765 99.0854 18.5765C99.6973 18.5765 100.116 18.3413 100.546 17.917L100.757 18.1228C100.309 18.5681 99.8247 18.8621 99.0742 18.8621Z" fill="white" fill-opacity="0.75"/>
<path d="M103.362 18.7893V14.5495H103.677V18.7893H103.362Z" fill="white" fill-opacity="0.75"/>
<path d="M108.607 18.8621C107.323 18.8621 106.48 17.8386 106.48 16.6806V16.6694C106.48 15.5129 107.334 14.4767 108.618 14.4767C109.902 14.4767 110.743 15.5003 110.743 16.6568C110.743 16.6568 110.743 16.6568 110.743 16.6694C110.749 17.826 109.896 18.8621 108.607 18.8621ZM110.427 16.6694C110.427 15.6207 109.664 14.761 108.617 14.761C107.569 14.761 106.817 15.6095 106.817 16.6568V16.6694C106.817 17.7168 107.58 18.5765 108.628 18.5765C109.675 18.5765 110.427 17.728 110.427 16.6806V16.6694Z" fill="white" fill-opacity="0.75"/>
<path d="M116.806 18.7893L113.82 15.0214V18.7893H113.517V14.5495H113.814L116.739 18.2376V14.5495H117.042V18.7893H116.806Z" fill="white" fill-opacity="0.75"/>
<path d="M123.54 18.7893L123.001 17.602H120.5L119.961 18.7893H119.633L121.608 14.5187H121.909L123.883 18.7893H123.54ZM121.753 14.8688L120.633 17.3219H122.873L121.753 14.8688Z" fill="white" fill-opacity="0.75"/>
<path d="M126.478 18.7893V14.5495H126.793V18.4981H129.281V18.7893H126.478Z" fill="white" fill-opacity="0.75"/>
</g>
<defs>
<clipPath id="clip0_1_89">
<rect width="129.282" height="18.8621" fill="white"/>
</clipPath>
</defs>
</svg>
